HIERARCHY
ROOT mixamorig:Hips
{
	OFFSET 0.000000 201.639420 0.000000
	CHANNELS 6 Xposition Yposition Zposition Xrotation Yrotation Zrotation
	JOINT mixamorig:Spine
	{
		OFFSET 0.006200 19.524994 -2.481800
		CHANNELS 3 Xrotation Yrotation Zrotation
		JOINT mixamorig:Spine1
		{
			OFFSET -0.000900 22.835007 -2.825400
			CHANNELS 3 Xrotation Yrotation Zrotation
			JOINT mixamorig:Spine2
			{
				OFFSET -0.020600 26.552490 -3.193300
				CHANNELS 3 Xrotation Yrotation Zrotation
				JOINT mixamorig:Neck
				{
					OFFSET -0.060000 30.701813 1.352200
					CHANNELS 3 Xrotation Yrotation Zrotation
					JOINT mixamorig:Head
					{
						OFFSET -0.087200 22.547607 3.670900
						CHANNELS 3 Xrotation Yrotation Zrotation
						JOINT mixamorig:HeadTop_End
						{
							OFFSET -0.830600 40.355194 7.893500
							CHANNELS 3 Xrotation Yrotation Zrotation
							End Site
							{
								OFFSET 0.000000 30.592346 0.000000
							}
						}
						JOINT mixamorig:RightEye
						{
							OFFSET -6.302100 18.118591 16.197100
							CHANNELS 3 Xrotation Yrotation Zrotation
							End Site
							{
								OFFSET 0.000000 30.592346 0.000000
							}
						}
						JOINT mixamorig:LeftEye
						{
							OFFSET 6.741500 18.382690 16.401899
							CHANNELS 3 Xrotation Yrotation Zrotation
							End Site
							{
								OFFSET 0.000000 30.592346 0.000000
							}
						}
					}
				}
				JOINT mixamorig:LeftShoulder
				{
					OFFSET 11.924900 18.230499 1.425400
					CHANNELS 3 Xrotation Yrotation Zrotation
					JOINT mixamorig:LeftArm
					{
						OFFSET 25.435989 -0.697632 -5.229300
						CHANNELS 3 Xrotation Yrotation Zrotation
						JOINT mixamorig:LeftForeArm
						{
							OFFSET 54.684776 0.000000 0.000000
							CHANNELS 3 Xrotation Yrotation Zrotation
							JOINT mixamorig:LeftHand
							{
								OFFSET 55.098175 0.000000 0.000000
								CHANNELS 3 Xrotation Yrotation Zrotation
								JOINT mixamorig:LeftHandMiddle1
								{
									OFFSET 23.369751 0.000000 0.000000
									CHANNELS 3 Xrotation Yrotation Zrotation
									JOINT mixamorig:LeftHandMiddle2
									{
										OFFSET 6.378677 0.000000 0.000000
										CHANNELS 3 Xrotation Yrotation Zrotation
										JOINT mixamorig:LeftHandMiddle3
										{
											OFFSET 6.148331 0.000000 0.000000
											CHANNELS 3 Xrotation Yrotation Zrotation
											JOINT mixamorig:LeftHandMiddle4
											{
												OFFSET 6.582504 0.000000 0.000000
												CHANNELS 3 Xrotation Yrotation Zrotation
												End Site
												{
													OFFSET -1.168900 6.395691 1.028606
												}
											}
										}
									}
								}
								JOINT mixamorig:LeftHandThumb1
								{
									OFFSET 7.235672 -3.848206 5.434273
									CHANNELS 3 Xrotation Yrotation Zrotation
									JOINT mixamorig:LeftHandThumb2
									{
										OFFSET 6.568451 -3.792297 3.792300
										CHANNELS 3 Xrotation Yrotation Zrotation
										JOINT mixamorig:LeftHandThumb3
										{
											OFFSET 6.063080 -3.500519 3.500518
											CHANNELS 3 Xrotation Yrotation Zrotation
											JOINT mixamorig:LeftHandThumb4
											{
												OFFSET 4.793182 -2.767334 2.767349
												CHANNELS 3 Xrotation Yrotation Zrotation
												End Site
												{
													OFFSET 0.101639 6.054260 1.275483
												}
											}
										}
									}
								}
								JOINT mixamorig:LeftHandIndex1
								{
									OFFSET 23.101074 -0.309540 4.992809
									CHANNELS 3 Xrotation Yrotation Zrotation
									JOINT mixamorig:LeftHandIndex2
									{
										OFFSET 6.226883 0.000000 0.000000
										CHANNELS 3 Xrotation Yrotation Zrotation
										JOINT mixamorig:LeftHandIndex3
										{
											OFFSET 6.094330 0.000000 0.000000
											CHANNELS 3 Xrotation Yrotation Zrotation
											JOINT mixamorig:LeftHandIndex4
											{
												OFFSET 5.482605 0.000000 0.000000
												CHANNELS 3 Xrotation Yrotation Zrotation
												End Site
												{
													OFFSET -1.427902 5.233032 0.797164
												}
											}
										}
									}
								}
								JOINT mixamorig:LeftHandRing1
								{
									OFFSET 22.299240 0.021149 -3.964172
									CHANNELS 3 Xrotation Yrotation Zrotation
									JOINT mixamorig:LeftHandRing2
									{
										OFFSET 6.321869 0.000000 0.000000
										CHANNELS 3 Xrotation Yrotation Zrotation
										JOINT mixamorig:LeftHandRing3
										{
											OFFSET 5.899796 0.000000 0.000000
											CHANNELS 3 Xrotation Yrotation Zrotation
											JOINT mixamorig:LeftHandRing4
											{
												OFFSET 6.517899 0.000000 0.000000
												CHANNELS 3 Xrotation Yrotation Zrotation
												End Site
												{
													OFFSET -1.637299 6.232208 0.980890
												}
											}
										}
									}
								}
								JOINT mixamorig:LeftHandPinky1
								{
									OFFSET 20.463791 -0.302338 -8.562233
									CHANNELS 3 Xrotation Yrotation Zrotation
									JOINT mixamorig:LeftHandPinky2
									{
										OFFSET 6.908646 0.000000 0.000000
										CHANNELS 3 Xrotation Yrotation Zrotation
										JOINT mixamorig:LeftHandPinky3
										{
											OFFSET 4.622849 0.000000 0.000000
											CHANNELS 3 Xrotation Yrotation Zrotation
											JOINT mixamorig:LeftHandPinky4
											{
												OFFSET 5.216080 0.000000 0.000000
												CHANNELS 3 Xrotation Yrotation Zrotation
												End Site
												{
													OFFSET -0.606308 5.116241 0.814926
												}
											}
										}
									}
								}
							}
						}
					}
				}
				JOINT mixamorig:RightShoulder
				{
					OFFSET -12.001300 18.284088 1.348900
					CHANNELS 3 Xrotation Yrotation Zrotation
					JOINT mixamorig:RightArm
					{
						OFFSET -25.308500 -0.751312 -5.164599
						CHANNELS 3 Xrotation Yrotation Zrotation
						JOINT mixamorig:RightForeArm
						{
							OFFSET -54.684429 0.000000 0.000000
							CHANNELS 3 Xrotation Yrotation Zrotation
							JOINT mixamorig:RightHand
							{
								OFFSET -55.150291 0.000000 0.000000
								CHANNELS 3 Xrotation Yrotation Zrotation
								JOINT mixamorig:RightHandMiddle1
								{
									OFFSET -23.317566 0.000000 0.000000
									CHANNELS 3 Xrotation Yrotation Zrotation
									JOINT mixamorig:RightHandMiddle2
									{
										OFFSET -6.378403 0.000000 0.000000
										CHANNELS 3 Xrotation Yrotation Zrotation
										JOINT mixamorig:RightHandMiddle3
										{
											OFFSET -6.148193 0.000000 0.000000
											CHANNELS 3 Xrotation Yrotation Zrotation
											JOINT mixamorig:RightHandMiddle4
											{
												OFFSET -6.583389 0.000000 0.000000
												CHANNELS 3 Xrotation Yrotation Zrotation
												End Site
												{
													OFFSET 1.171692 6.395905 1.029786
												}
											}
										}
									}
								}
								JOINT mixamorig:RightHandThumb1
								{
									OFFSET -7.190521 -3.860474 5.435846
									CHANNELS 3 Xrotation Yrotation Zrotation
									JOINT mixamorig:RightHandThumb2
									{
										OFFSET -6.567429 -3.791718 3.791708
										CHANNELS 3 Xrotation Yrotation Zrotation
										JOINT mixamorig:RightHandThumb3
										{
											OFFSET -6.062469 -3.500153 3.500166
											CHANNELS 3 Xrotation Yrotation Zrotation
											JOINT mixamorig:RightHandThumb4
											{
												OFFSET -4.792618 -2.767029 2.767022
												CHANNELS 3 Xrotation Yrotation Zrotation
												End Site
												{
													OFFSET -0.100327 6.053253 1.276754
												}
											}
										}
									}
								}
								JOINT mixamorig:RightHandIndex1
								{
									OFFSET -23.048981 -0.310791 4.992554
									CHANNELS 3 Xrotation Yrotation Zrotation
									JOINT mixamorig:RightHandIndex2
									{
										OFFSET -6.227539 0.000000 0.000000
										CHANNELS 3 Xrotation Yrotation Zrotation
										JOINT mixamorig:RightHandIndex3
										{
											OFFSET -6.095047 0.000000 0.000000
											CHANNELS 3 Xrotation Yrotation Zrotation
											JOINT mixamorig:RightHandIndex4
											{
												OFFSET -5.484772 0.000000 0.000000
												CHANNELS 3 Xrotation Yrotation Zrotation
												End Site
												{
													OFFSET 1.420593 5.237305 0.797056
												}
											}
										}
									}
								}
								JOINT mixamorig:RightHandRing1
								{
									OFFSET -22.246323 0.020569 -3.963762
									CHANNELS 3 Xrotation Yrotation Zrotation
									JOINT mixamorig:RightHandRing2
									{
										OFFSET -6.322128 0.000000 0.000000
										CHANNELS 3 Xrotation Yrotation Zrotation
										JOINT mixamorig:RightHandRing3
										{
											OFFSET -5.900024 0.000000 0.000000
											CHANNELS 3 Xrotation Yrotation Zrotation
											JOINT mixamorig:RightHandRing4
											{
												OFFSET -6.518356 0.000000 0.000000
												CHANNELS 3 Xrotation Yrotation Zrotation
												End Site
												{
													OFFSET 1.636398 6.232697 0.982186
												}
											}
										}
									}
								}
								JOINT mixamorig:RightHandPinky1
								{
									OFFSET -20.411011 -0.303314 -8.561701
									CHANNELS 3 Xrotation Yrotation Zrotation
									JOINT mixamorig:RightHandPinky2
									{
										OFFSET -6.907349 0.000000 0.000000
										CHANNELS 3 Xrotation Yrotation Zrotation
										JOINT mixamorig:RightHandPinky3
										{
											OFFSET -4.623840 0.000000 0.000000
											CHANNELS 3 Xrotation Yrotation Zrotation
											JOINT mixamorig:RightHandPinky4
											{
												OFFSET -5.218353 0.000000 0.000000
												CHANNELS 3 Xrotation Yrotation Zrotation
												End Site
												{
													OFFSET 0.602097 5.118835 0.816273
												}
											}
										}
									}
								}
							}
						}
					}
				}
			}
		}
	}
	JOINT mixamorig:LeftUpLeg
	{
		OFFSET 18.168400 -13.561905 -0.039000
		CHANNELS 3 Xrotation Yrotation Zrotation
		JOINT mixamorig:LeftLeg
		{
			OFFSET 0.577358 -80.825211 -3.695000
			CHANNELS 3 Xrotation Yrotation Zrotation
			JOINT mixamorig:LeftFoot
			{
				OFFSET -0.577356 -83.370262 -6.520700
				CHANNELS 3 Xrotation Yrotation Zrotation
				JOINT mixamorig:LeftToeBase
				{
					OFFSET 0.750401 -20.798306 25.135401
					CHANNELS 3 Xrotation Yrotation Zrotation
					JOINT mixamorig:LeftToe_End
					{
						OFFSET -0.000500 0.001200 19.917799
						CHANNELS 3 Xrotation Yrotation Zrotation
						End Site
						{
							OFFSET 0.000000 19.917805 0.000000
						}
					}
				}
			}
		}
	}
	JOINT mixamorig:RightUpLeg
	{
		OFFSET -18.162500 -13.585098 -0.041000
		CHANNELS 3 Xrotation Yrotation Zrotation
		JOINT mixamorig:RightLeg
		{
			OFFSET -0.595024 -80.945297 -3.631900
			CHANNELS 3 Xrotation Yrotation Zrotation
			JOINT mixamorig:RightFoot
			{
				OFFSET 0.595024 -83.218193 -6.561200
				CHANNELS 3 Xrotation Yrotation Zrotation
				JOINT mixamorig:RightToeBase
				{
					OFFSET -0.753601 -20.807106 25.115000
					CHANNELS 3 Xrotation Yrotation Zrotation
					JOINT mixamorig:RightToe_End
					{
						OFFSET 0.000299 0.001700 19.918200
						CHANNELS 3 Xrotation Yrotation Zrotation
						End Site
						{
							OFFSET 0.000000 19.918203 0.000000
						}
					}
				}
			}
		}
	}
}
MOTION
Frames: 4
Frame Time: 0.016667
0.373336 200.306702 -0.376045 -3.753468 -5.225058 -3.503201 3.300635 1.529792 2.471400 1.146036 0.329155 1.552971 1.123712 0.356193 1.550933 5.622660 -0.077171 0.463900 -7.551143 1.374727 -0.084354 -0.000000 -0.000000 0.000000 -0.000000 -0.000000 0.000000 -0.000000 -0.000000 0.000000 1.046097 -17.446004 -12.316924 3.915537 -19.989501 -69.767698 0.000013 -1.452719 -0.000014 -33.228286 -1.359857 -6.191298 -0.077464 2.661815 -15.698688 0.268777 1.755776 -17.405216 0.300516 1.853947 -18.413113 -0.000000 -0.000001 0.000005 -0.666104 2.158571 4.837376 11.859615 25.414868 17.056690 -13.811967 3.541901 9.030667 0.000002 -0.000001 -0.000004 0.020434 -0.966551 -7.590927 0.267888 1.752971 -17.376525 0.057696 0.821034 -8.038801 -0.000003 -0.000001 0.000001 0.137968 3.644589 -21.134808 0.386573 2.094655 -20.910464 0.283120 1.800884 -17.867558 -0.000002 -0.000001 0.000001 0.923045 5.558205 -27.126865 0.268796 1.755835 -17.405899 0.241894 1.667669 -16.505524 0.000000 0.000000 0.000005 1.189529 15.344126 14.707062 13.162773 27.550871 58.780929 0.000004 6.689834 0.000015 -20.174750 -0.523595 6.792857 -0.135885 -2.206385 14.998776 0.214473 -1.398416 17.437712 0.239795 -1.476582 18.447093 -0.000001 0.000002 -0.000002 -1.664528 -0.169112 -4.216940 12.708045 -29.838180 -16.127711 -15.551975 -3.555836 -12.703316 0.000001 0.000001 0.000002 0.037632 1.264472 6.828361 0.213866 -1.396483 17.412917 0.046093 -0.654323 8.059119 -0.000004 0.000000 -0.000003 0.031301 -3.078205 20.463768 0.308448 -1.668287 20.948520 0.225823 -1.434035 17.897099 -0.000001 0.000001 0.000005 0.748324 -4.885939 26.472237 0.214427 -1.398289 17.436016 0.192933 -1.327917 16.532277 -0.000001 -0.000003 0.000001 -13.017827 14.260577 10.836723 13.116514 2.097890 4.206662 2.610172 0.421723 -7.302250 -4.933145 0.000005 0.000001 0.000000 -0.000001 -0.000000 -0.278597 -10.389513 3.099675 6.177608 -9.750921 -3.278851 -1.678290 -1.554470 2.857144 -7.273477 0.000017 0.000002 -0.000000 -0.000002 -0.000000 
0.149749 200.125732 -0.251145 -3.692944 -5.090846 -3.140566 3.287813 1.535453 2.243457 1.142600 0.326736 1.493550 1.120640 0.353166 1.491651 5.512577 -0.055569 0.450595 -7.604082 1.429832 -0.080160 0.000000 -0.000000 0.000000 0.000000 -0.000000 0.000000 0.000000 -0.000000 0.000000 1.044403 -17.441376 -12.330704 3.951559 -19.536414 -69.493179 -0.000004 -1.642262 0.000010 -32.306866 -1.493934 -6.214403 -0.073357 2.710939 -16.106855 0.297129 1.843742 -18.307953 0.304108 1.864691 -18.523669 -0.000003 0.000000 0.000003 -0.658492 2.013757 4.882196 11.765944 24.913108 16.667586 -13.884751 3.447828 9.248677 0.000000 0.000002 -0.000002 0.079833 -1.001159 -7.264795 0.284446 1.804965 -17.909461 0.073656 0.927040 -9.085174 -0.000003 -0.000001 -0.000001 0.145513 3.707000 -22.144061 0.406290 2.145512 -21.443456 0.285737 1.808972 -17.950666 -0.000001 -0.000001 -0.000002 0.856220 5.674272 -28.005695 0.297599 1.845168 -18.322686 0.271322 1.763896 -17.488291 -0.000001 -0.000003 -0.000002 1.196936 15.319925 14.663641 13.024001 27.083131 58.713631 0.000003 6.642279 -0.000022 -19.352007 -0.445512 6.799672 -0.136075 -2.257005 15.582259 0.240804 -1.479658 18.486667 0.271099 -1.567296 19.625872 0.000000 0.000003 0.000001 -1.664516 -0.169053 -4.216947 12.707983 -29.837931 -16.127593 -15.551982 -3.555839 -12.703379 0.000004 0.000000 0.000001 0.039152 1.208294 7.463074 0.240886 -1.479844 18.489353 0.059618 -0.743610 9.167883 -0.000005 0.000001 -0.000001 0.040575 -3.126427 21.005480 0.340563 -1.749826 22.025222 0.256314 -1.525201 19.077856 0.000001 0.000002 0.000004 0.781346 -4.920456 27.024828 0.240851 -1.479773 18.488444 0.219679 -1.414884 17.649929 0.000000 0.000001 -0.000001 -13.129278 14.288254 10.553404 13.401688 2.032688 4.204131 2.452245 0.374014 -7.343226 -4.913003 -0.000008 0.000000 -0.000000 -0.000001 0.000000 -1.576726 -10.355177 2.586898 8.596799 -9.886418 -3.280869 -2.921662 -1.724752 3.000909 -7.364084 -0.000016 -0.000002 -0.000000 -0.000000 -0.000000 
-0.083046 199.954269 -0.113773 -3.645864 -4.945644 -2.781655 3.280358 1.536790 2.027960 1.139323 0.323327 1.431720 1.117754 0.349069 1.429961 5.443587 -0.027928 0.433869 -7.696950 1.507728 -0.085506 -0.000000 -0.000000 0.000000 -0.000000 -0.000000 0.000000 -0.000000 -0.000000 0.000000 1.044892 -17.434242 -12.335486 4.054297 -19.040324 -69.191845 0.000000 -1.991422 -0.000004 -31.319231 -1.537151 -6.234134 -0.069254 2.753827 -16.455456 0.324501 1.924458 -19.140598 0.306698 1.872405 -18.603175 0.000001 -0.000002 -0.000003 -0.651196 1.874682 4.925368 11.669784 24.359393 16.284762 -13.965601 3.310419 9.454764 -0.000001 -0.000000 -0.000003 0.138575 -1.050640 -6.843745 0.299511 1.850929 -18.381991 0.090547 1.027121 -10.075904 -0.000001 -0.000001 -0.000003 0.153152 3.767391 -23.120330 0.424169 2.190448 -21.915987 0.287408 1.814107 -18.003392 -0.000001 0.000000 0.000005 0.793166 5.791321 -28.842554 0.328465 1.935837 -19.258236 0.303036 1.861504 -18.490763 0.000000 -0.000004 0.000002 1.202637 15.299257 14.632046 12.909206 26.614117 58.621888 0.000004 6.619596 -0.000005 -18.517859 -0.328200 6.777535 -0.135862 -2.308533 16.181609 0.269054 -1.561546 19.550873 0.307279 -1.665232 20.908416 -0.000001 -0.000000 0.000001 -1.664528 -0.169112 -4.216929 12.708033 -29.838395 -16.127765 -15.551965 -3.555904 -12.703315 0.000004 -0.000000 0.000004 0.035960 1.145305 8.184926 0.270895 -1.566730 19.618569 0.075000 -0.833302 10.285134 -0.000003 0.000000 0.000000 0.051322 -3.175233 21.504902 0.375880 -1.834690 23.154751 0.291687 -1.623840 20.365177 -0.000001 0.000001 0.000002 0.816738 -4.953062 27.547053 0.269309 -1.562268 19.560238 0.248643 -1.502837 18.787306 0.000000 0.000004 -0.000000 -13.213639 14.343083 10.278513 13.653785 1.964868 4.200525 2.306310 0.290826 -7.386482 -4.919066 -0.000001 -0.000000 0.000000 -0.000001 0.000000 -2.692628 -10.321913 2.111739 10.685382 -9.937959 -3.287902 -3.911561 -1.997746 3.151938 -7.429956 0.000004 0.000000 -0.000000 0.000000 -0.000000 
-0.323453 199.781403 0.030919 -3.607717 -4.795756 -2.418043 3.275886 1.535409 1.813474 1.135780 0.319331 1.368501 1.114625 0.344344 1.366884 5.404327 0.003885 0.414216 -7.816277 1.602061 -0.096108 0.000000 -0.000000 0.000000 0.000000 -0.000000 0.000000 0.000000 -0.000000 0.000000 1.046344 -17.425681 -12.336191 4.125562 -18.521421 -68.898140 0.000003 -2.314463 -0.000003 -30.279881 -1.589578 -6.280601 -0.065152 2.792489 -16.763851 0.351390 2.000205 -19.925830 0.308614 1.878082 -18.661677 -0.000000 0.000000 0.000002 -0.644129 1.739497 4.967418 11.572147 23.770561 15.905747 -14.051900 3.143610 9.652526 0.000001 0.000001 -0.000001 0.197251 -1.109852 -6.358480 0.313616 1.892809 -18.813647 0.108432 1.123108 -11.029089 -0.000000 -0.000001 0.000006 0.160947 3.826450 -24.074310 0.440816 2.231363 -22.347674 0.288423 1.817242 -18.035576 0.000001 0.000001 0.000001 0.733365 5.909621 -29.651084 0.361260 2.027203 -20.206573 0.336908 1.959824 -19.506655 -0.000001 -0.000001 -0.000001 1.206393 15.285989 14.610746 12.811734 26.140773 58.511437 -0.000006 6.613153 -0.000021 -17.663639 -0.188521 6.728688 -0.135162 -2.360618 16.791170 0.299094 -1.643649 20.624704 0.347694 -1.767360 22.257959 -0.000003 -0.000002 0.000002 -1.664525 -0.169202 -4.216898 12.708145 -29.839037 -16.127986 -15.551974 -3.555973 -12.703249 -0.000002 -0.000001 -0.000001 0.030225 1.078115 8.962851 0.303607 -1.655592 20.781756 0.092205 -0.923091 11.407775 -0.000000 -0.000000 -0.000004 0.063179 -3.224340 21.976969 0.414014 -1.921359 24.318291 0.331336 -1.726858 21.721284 0.000000 0.000002 -0.000001 0.851931 -4.985230 28.049371 0.299664 -1.645155 20.644648 0.279680 -1.591156 19.937483 -0.000004 0.000002 -0.000000 -13.287598 14.408970 10.003333 13.904173 1.901200 4.196203 2.162012 0.190825 -7.432353 -4.939163 -0.000006 -0.000001 -0.000000 0.000000 0.000000 -3.614433 -10.285567 1.666099 12.427197 -9.954732 -3.296106 -4.749735 -2.311594 3.301801 -7.479428 -0.000003 -0.000001 -0.000000 0.000001 0.000000 
